<?xml version="1.0" encoding="UTF-8"?>
<svg version="1.1" xmlns="http://www.w3.org/2000/svg" width="500" height="500">
<path d="M0 0 C165 0 330 0 500 0 C500 165 500 330 500 500 C335 500 170 500 0 500 C0 335 0 170 0 0 Z " fill="#FEFEFE" transform="translate(0,0)"/>
<path d="M0 0 C7.2165184 5.98154873 12.90518051 13.58042085 14.25 23.05078125 C14.44192071 25.40043913 14.56057133 27.7566789 14.625 30.11328125 C14.67398438 31.32113281 14.72296875 32.52898437 14.7734375 33.7734375 C14.12240463 44.38939045 6.95680446 54.58708076 1.875 63.61328125 C1.1653969 64.88507164 0.45642551 66.15721468 -0.25195312 67.4296875 C-1.70471272 70.03717642 -3.16086551 72.6427209 -4.62011719 75.24658203 C-7.23115612 79.90687481 -9.82390923 84.57722388 -12.41650391 89.24780273 C-13.64451229 91.46001651 -14.87336127 93.67176386 -16.10302734 95.88305664 C-20.66986992 104.09584354 -25.21412342 112.32087276 -29.75 120.55078125 C-35.51354617 131.00817726 -41.30145297 141.45170934 -47.10546875 151.88671875 C-51.67084233 160.09864858 -56.21482901 168.32215298 -60.75 176.55078125 C-66.51354617 187.00817726 -72.30145297 197.45170934 -78.10546875 207.88671875 C-82.67084265 216.09864916 -87.21473208 224.32220601 -91.75 232.55078125 C-98.7692977 245.28531675 -105.82324766 258.0003536 -112.89111328 270.70800781 C-115.38730005 275.19681649 -117.88163361 279.68665314 -120.37548828 284.17675781 C-121.61668681 286.4108505 -122.85853977 288.64457973 -124.10107422 290.87792969 C-127.02679791 296.13822848 -129.94631675 301.40169612 -132.84432983 306.67730713 C-134.21039116 309.16322919 -135.57991482 311.64723575 -136.94970703 314.13110352 C-137.91255961 315.88046815 -138.87041024 317.63258294 -139.828125 319.38476562 C-140.41464844 320.44759766 -141.00117188 321.51042969 -141.60546875 322.60546875 C-142.37346802 324.00514893 -142.37346802 324.00514893 -143.15698242 325.43310547 C-148.89186923 334.85677695 -157.25705822 340.29335535 -167.7421875 343.390625 C-177.9358363 345.62793233 -186.46598844 343.63775317 -195.453125 338.5078125 C-204.99771166 332.26382392 -210.65075413 324.05573056 -213.75 313.05078125 C-215.81392838 298.30368009 -209.02085093 287.06325949 -201.9375 274.61328125 C-201.27853197 273.44313876 -200.6203486 272.2725541 -199.96289062 271.1015625 C-198.93576487 269.27240274 -197.90815871 267.44353175 -196.87814331 265.61599731 C-193.46228784 259.55435317 -190.10258558 253.46231678 -186.74890137 247.36611938 C-185.0755048 244.32499771 -183.39924572 241.28545605 -181.72265625 238.24609375 C-181.2265535 237.34673851 -181.2265535 237.34673851 -180.72042847 236.42921448 C-174.14194291 224.50856543 -167.51392136 212.61530338 -160.89550781 200.71679688 C-153.82621184 188.00619528 -146.77102655 175.28809819 -139.75 162.55078125 C-131.50119352 147.58606608 -123.20176809 132.64969449 -114.89550781 117.71679688 C-107.48719998 104.3966516 -100.09716501 91.06677672 -92.74002075 77.71832275 C-87.31951648 67.884286 -81.88311004 58.05923975 -76.40991211 48.25439453 C-73.4402486 42.92756305 -70.49269757 37.59203438 -67.60525513 32.22027588 C-66.19016358 29.58896834 -64.76655208 26.96230812 -63.34277344 24.33569336 C-62.66826807 23.08530106 -61.99800984 21.83260612 -61.33251953 20.57739258 C-56.31188744 11.11068614 -50.98243012 1.53246879 -41.0625 -3.44921875 C-40.17175781 -3.91328125 -39.28101563 -4.37734375 -38.36328125 -4.85546875 C-25.71714737 -10.14832 -10.91050352 -7.73343929 0 0 Z " fill="#FF5757" transform="translate(262.75,58.94921875)"/>
<path d="M0 0 C1.16345947 -0.00426498 2.32691895 -0.00852997 3.52563477 -0.01292419 C5.4579747 -0.01224442 5.4579747 -0.01224442 7.42935181 -0.0115509 C8.79094536 -0.01454111 10.15253806 -0.01794332 11.51412964 -0.02172852 C15.22543895 -0.0305943 18.93672523 -0.03290792 22.64804411 -0.0335443 C24.96898483 -0.03425421 27.28991966 -0.03638757 29.61085892 -0.03904152 C37.7153994 -0.0483087 45.81992339 -0.05237535 53.92446899 -0.05158997 C61.46385923 -0.0509912 69.00317745 -0.06149979 76.54254949 -0.07733363 C83.02167227 -0.09045275 89.50077168 -0.09577192 95.97990763 -0.09513456 C99.84627407 -0.09488053 103.71257675 -0.09767788 107.5789299 -0.10831261 C111.22490337 -0.11806539 114.87075318 -0.11802409 118.51673126 -0.11079597 C120.47673651 -0.10926767 122.43674192 -0.11754961 124.39672852 -0.12623596 C142.83613209 -0.06133153 160.70987475 4.6843982 174.51382446 17.50871277 C181.3731501 25.01264973 183.500561 31.17932619 183.11929321 41.47355652 C181.97542298 50.18742978 177.44489021 56.73671532 170.63882446 62.13371277 C153.97815314 73.87717207 136.14662162 76.60687981 116.34243774 76.47428894 C114.54729222 76.47344075 112.75214566 76.47392154 110.95700073 76.47561646 C106.12731195 76.47647036 101.29785081 76.45894359 96.46821451 76.43789458 C91.40472502 76.41902593 86.34122919 76.41736936 81.27770996 76.41381836 C71.708732 76.40452764 62.13985797 76.37995445 52.57092559 76.34976989 C41.66876742 76.31613288 30.76660405 76.29971657 19.86440682 76.28468359 C-2.54417805 76.25340198 -24.95267094 76.20069984 -47.36117554 76.13371277 C-46.01190662 71.95668876 -44.49252981 68.28143445 -42.34164429 64.45011902 C-41.73804077 63.36924011 -41.13443726 62.28836121 -40.51254272 61.17472839 C-39.54042847 59.45286316 -39.54042847 59.45286316 -38.54867554 57.69621277 C-37.87151862 56.48875421 -37.19476625 55.2810687 -36.5184021 54.07316589 C-34.79961046 51.0068294 -33.07447101 47.94411862 -31.34719849 44.8825531 C-29.85003715 42.22714216 -28.35797785 39.56886715 -26.86508179 36.91105652 C-21.66313689 27.66529489 -16.4139917 18.44700252 -11.11117554 9.25871277 C-10.64485718 8.44918152 -10.17853882 7.63965027 -9.6980896 6.80558777 C-9.05952026 5.70343933 -9.05952026 5.70343933 -8.40805054 4.57902527 C-8.03518921 3.93465515 -7.66232788 3.29028503 -7.27816772 2.62638855 C-5.31819951 -0.56403894 -3.66631853 0.00604029 0 0 Z " fill="#38B6FF" transform="translate(170.36117553710938,324.8662872314453)"/>
<path d="M0 0 C7.19609254 6.17937616 11.52784005 14.80515084 16.2578125 22.89208984 C18.24502836 26.26630339 20.27162335 29.61514664 22.3125 32.95703125 C22.67025009 33.54304108 23.02800018 34.1290509 23.39659119 34.7328186 C24.12623344 35.92790628 24.85592425 37.12296431 25.58566284 38.31799316 C31.28032163 47.65720203 36.91757646 57.03117507 42.53417969 66.41748047 C46.44392424 72.94472112 50.39074061 79.44918561 54.34368896 85.95031738 C56.5197173 89.53060707 58.69205839 93.11313642 60.8649292 96.69534302 C63.02982619 100.26291007 65.20145217 103.82627318 67.37791443 107.38679504 C69.09049947 110.19218906 70.79442652 113.00283952 72.5 115.8125 C73.12430908 116.82916748 73.74861816 117.84583496 74.3918457 118.89331055 C80.9576652 129.74630447 84.33143733 139.2768881 81.43359375 152.12890625 C77.65196477 163.50543863 69.80633831 172.18848758 59.375 178 C50.27350548 181.8081567 38.84467243 181.7340302 29.44921875 178.98828125 C16.66926022 173.06110862 10.46608304 162.28720154 3.75 150.5625 C2.48318183 148.38355198 1.2120091 146.20718209 -0.05924988 144.03082275 C-0.88623515 142.61414952 -1.71178798 141.19663905 -2.5358429 139.77825928 C-5.37239022 134.8985384 -8.28288973 130.0752397 -11.3125 125.3125 C-15.28655018 119.03884469 -19.12118752 112.68931151 -22.93017578 106.31420898 C-26.95744396 99.57868836 -31.0229079 92.86687027 -35.10101318 86.16204834 C-37.27331985 82.58904868 -39.44167839 79.0136509 -41.61050415 75.4385376 C-43.42630433 72.44618368 -45.24444176 69.45529504 -47.06738281 66.46728516 C-48.48526133 64.14314979 -49.90007316 61.8172066 -51.3112793 59.48901367 C-52.61279962 57.34183063 -53.91872035 55.19730664 -55.22973633 53.0559082 C-55.81263428 52.09128662 -56.39553223 51.12666504 -56.99609375 50.1328125 C-57.5058374 49.29508301 -58.01558105 48.45735352 -58.54077148 47.59423828 C-63.19545541 38.76183713 -63.25556733 28.18766821 -60.75 18.625 C-57.46467178 9.42303903 -49.92521623 1.47619924 -41.47265625 -3.29296875 C-27.70596682 -9.63801529 -12.56251217 -8.42213437 0 0 Z " fill="#FF914D" transform="translate(363.875,206.9375)"/>
<path d="M0 0 C0.66 0 1.32 0 2 0 C2.3810791 0.69222656 2.7621582 1.38445312 3.15478516 2.09765625 C10.55117222 15.51590013 18.03211875 28.86673254 25.79736328 42.07617188 C29.95669651 49.16772401 34.00256043 56.31608255 38 63.5 C42.57567024 71.72203711 47.23612197 79.88556326 52 88 C56.99633391 96.518537 61.91196117 105.07819488 66.75 113.6875 C67.34683594 114.74517578 67.94367188 115.80285156 68.55859375 116.89257812 C69.38810547 118.37467773 69.38810547 118.37467773 70.234375 119.88671875 C70.72131836 120.75514404 71.20826172 121.62356934 71.70996094 122.51831055 C73 125 73 125 75 130 C26.16 130 -22.68 130 -73 130 C-71.49435603 126.23589007 -69.96798631 122.96459936 -68.015625 119.44921875 C-67.41741943 118.37075684 -66.81921387 117.29229492 -66.20288086 116.18115234 C-65.55215348 115.0164714 -64.90118697 113.85192404 -64.25 112.6875 C-63.91775421 112.09108704 -63.58550842 111.49467407 -63.24319458 110.88018799 C-58.01251873 101.49192357 -52.64806942 92.18787507 -47.20214844 82.92260742 C-43.04262769 75.83166502 -38.99722806 68.68353735 -35 61.5 C-29.87365241 52.28844892 -24.61879288 43.16253398 -19.28076172 34.07226562 C-12.68471125 22.80953277 -6.33674855 11.41022246 0 0 Z " fill="#FFDE59" transform="translate(249,183)"/>
<path d="M0 0 C9.35657537 5.00359908 16.26891506 12.16932743 20.44140625 21.97265625 C23.31155125 32.25632472 22.40308872 43.83013025 17.359375 53.26171875 C11.61854871 62.72498284 4.02968298 68.37161609 -6.3984375 71.84765625 C-15.75243208 73.57504898 -26.53495983 73.60484089 -34.640625 68.26171875 C-35.33414062 67.81441406 -36.02765625 67.36710937 -36.7421875 66.90625 C-44.86139668 61.23496718 -51.04405572 53.96294355 -53.640625 44.26171875 C-54.8289693 34.70852816 -55.0901434 24.54042964 -49.640625 16.26171875 C-49.08375 15.25109375 -48.526875 14.24046875 -47.953125 13.19921875 C-36.23870143 -1.68126524 -17.79004549 -7.6820651 0 0 Z " fill="#FF914D" transform="translate(317.640625,128.73828125)"/>
</svg>
